<?xml version="1.0" encoding="UTF-8" standalone="no"?>
<svg
   viewBox="0 0 187.69 179.67"
   version="1.1"
   id="svg12"
   sodipodi:docname="Favorite_.svg"
   inkscape:version="1.1 (c68e22c387, 2021-05-23)"
   xmlns:inkscape="http://www.inkscape.org/namespaces/inkscape"
   xmlns:sodipodi="http://sodipodi.sourceforge.net/DTD/sodipodi-0.dtd"
   xmlns="http://www.w3.org/2000/svg"
   xmlns:svg="http://www.w3.org/2000/svg"
   xmlns:rdf="http://www.w3.org/1999/02/22-rdf-syntax-ns#"
   xmlns:cc="http://creativecommons.org/ns#"
   xmlns:dc="http://purl.org/dc/elements/1.1/">
  <sodipodi:namedview
     id="namedview14"
     pagecolor="#ffffff"
     bordercolor="#666666"
     borderopacity="1.0"
     inkscape:pageshadow="2"
     inkscape:pageopacity="0.0"
     inkscape:pagecheckerboard="0"
     showgrid="false"
     inkscape:zoom="4.7475929"
     inkscape:cx="93.942344"
     inkscape:cy="89.940316"
     inkscape:window-width="1920"
     inkscape:window-height="1047"
     inkscape:window-x="0"
     inkscape:window-y="0"
     inkscape:window-maximized="1"
     inkscape:current-layer="svg12" />
  <defs
     id="defs4">
    <style
       id="style2">.cls-1{fill:none;stroke:#1c4275;stroke-linecap:round;stroke-miterlimit:10;stroke-width:9px;}</style>
  </defs>
  <title
     id="title6">Favorite</title>
  <g
     id="Layer_2"
     data-name="Layer 2"
     style="fill:#ff7f2a;stroke:#008000">
    <g
       id="Layer_1-2"
       data-name="Layer 1"
       style="fill:#ff7f2a;stroke:#008000">
      <path
         class="cls-1"
         d="M 100.8,9.55 116.88,59 a 7.31,7.31 0 0 0 6.95,5 h 52 a 7.31,7.31 0 0 1 4.29,13.22 l -42.06,30.68 a 7.31,7.31 0 0 0 -2.65,8.17 l 16.08,49.5 a 7.31,7.31 0 0 1 -11.24,8.17 L 98.14,143.15 a 7.31,7.31 0 0 0 -8.59,0 l -42.1,30.59 a 7.31,7.31 0 0 1 -11.24,-8.17 l 16.08,-49.5 A 7.31,7.31 0 0 0 49.64,107.9 L 7.53,77.31 A 7.31,7.31 0 0 1 11.82,64.1 h 52 a 7.31,7.31 0 0 0 6.95,-5 L 86.9,9.55 a 7.31,7.31 0 0 1 13.9,0 z"
         id="path8"
         style="fill:#ff7f2a;stroke:#008000" />
    </g>
  </g>
  <metadata
     id="metadata831">
    <rdf:RDF>
      <cc:Work
         rdf:about="">
        <dc:title>Favorite</dc:title>
      </cc:Work>
    </rdf:RDF>
  </metadata>
</svg>
